<svg xmlns="http://www.w3.org/2000/svg" width="33.96" height="33.389" viewBox="0 0 33.96 33.389">
  <g id="SVGRepo_iconCarrier" transform="translate(-9.291 -18.286)">
    <path id="Path_263" data-name="Path 263" d="M36.693,25.315a9.859,9.859,0,0,0,2.764-1.241c.4-.293.532-.485.532-.562s-.127-.27-.532-.565a9.9,9.9,0,0,0-2.764-1.238A37.217,37.217,0,0,0,26.27,20.394a37.312,37.312,0,0,0-10.423,1.315,9.859,9.859,0,0,0-2.764,1.241c-.4.293-.532.483-.532.562s.127.27.532.565a9.9,9.9,0,0,0,2.764,1.238A37.217,37.217,0,0,0,26.27,26.63a37.312,37.312,0,0,0,10.423-1.315ZM11.67,33.963v4.523c1.5,1.4,5.537,3.115,10.466,3.627,7.228.747,14.071-.655,18.717-3.452l.017-4.623c-4.95,2.586-11.917,3.673-18.963,2.941-4.363-.449-8.078-1.618-10.24-3.015Zm0-2.825c1.5,1.4,5.537,3.113,10.466,3.621,7.242.75,14.1-.658,18.746-3.467l.02-5.126c-2.958,1.541-8.4,2.573-14.632,2.573-6.2,0-11.631-1.027-14.592-2.556q-.006,2.474-.009,4.951Zm.006,10.178.012,3.8-.043-.262c.885,2.6,6.534,4.687,14.947,4.687a27.351,27.351,0,0,0,10.934-1.829,13.277,13.277,0,0,0,1.943-1,12.069,12.069,0,0,0,1.049-.724,1.141,1.141,0,0,1,1.469.128.885.885,0,0,1,0,1.333,13.64,13.64,0,0,1-1.13.814,16.486,16.486,0,0,1-2.324,1.282c-3.047,1.338-6.152,2.137-11.94,2.137-9.642,0-16.017-2.71-17.237-6.292l-.043-.128V45.12L9.293,39.7q-.01-8,.015-16a1.645,1.645,0,0,1-.012-.184c0-2.887,7.6-5.227,16.974-5.227s16.971,2.34,16.971,5.227a1.659,1.659,0,0,1-.032.336.737.737,0,0,1,.04.249l-.066,18.274a1.207,1.207,0,0,1-2.345-.008V41.4c-4.944,2.571-11.9,3.655-18.931,2.928-4.357-.452-8.072-1.618-10.235-3.015ZM38.1,31.1a.9.9,0,1,1,1.032-.894A.969.969,0,0,1,38.1,31.1Zm0,7.353a.9.9,0,1,1,1.032-.894.969.969,0,0,1-1.032.894Zm0,7.448a.9.9,0,1,1,1.032-.9.968.968,0,0,1-1.032.9Z" transform="translate(0)" fill="#fff"/>
  </g>
</svg>
